<?xml version="1.0" encoding="utf-8"?>
<!-- Generator: Adobe Illustrator 16.0.0, SVG Export Plug-In . SVG Version: 6.00 Build 0)  -->
<!DOCTYPE svg PUBLIC "-//W3C//DTD SVG 1.1//EN" "http://www.w3.org/Graphics/SVG/1.1/DTD/svg11.dtd">
<svg version="1.1" id="Calque_1" xmlns="http://www.w3.org/2000/svg" xmlns:xlink="http://www.w3.org/1999/xlink" x="0px" y="0px"
	 width="800px" height="800px" viewBox="0 0 800 800" enable-background="new 0 0 800 800" xml:space="preserve">
<g>
	<path fill-rule="evenodd" clip-rule="evenodd" d="M656.717,27.72c-0.676,1.659-1.25,3.367-2.042,4.968
		c-12.392,25.077-24.845,50.123-37.218,75.209c-14.705,29.814-29.347,59.661-44.018,89.493
		c-14.511,29.507-29.038,59.006-43.53,88.522c-9.763,19.88-19.507,39.769-29.197,59.684c-4.335,8.907-6.573,18.132-5.07,28.216
		c2.005,13.45,0.427,26.473-5.617,38.893c-2.723,5.594-4.701,11.549-7.451,18.426c-8.529-10.328-18.939-15.507-31.455-16.457
		c1.507-8.479,3.1-16.28,4.247-24.145c2.233-15.317-0.095-30.329-4.358-44.972c-1.538-5.278-4.803-10.131-7.743-14.893
		c-1.756-2.846-1.873-4.939-0.176-7.886c13.876-24.083,27.616-48.244,41.318-72.426c17.394-30.694,34.94-61.305,51.999-92.185
		c15.672-28.37,31.188-56.708,52.894-81.215c11.794-13.316,23.493-26.623,38.232-36.68c6.984-4.767,14.834-8.284,22.381-12.192
		c1.705-0.884,3.787-1.042,5.696-1.535C655.977,26.937,656.348,27.328,656.717,27.72z M482.195,327.735
		c7.707,0.204,13.508-5.503,13.595-13.375c0.074-6.667-5.174-11.888-12.286-12.225c-7.059-0.334-13.237,5.463-13.344,12.521
		C470.052,321.778,475.368,327.555,482.195,327.735z"/>
	<path fill-rule="evenodd" clip-rule="evenodd" d="M403.149,492.542c17.199,8.077,34.056,15.994,51.401,24.14
		c-1.609,3.705-2.844,6.647-4.155,9.554c-10.738,23.794-21.523,47.567-32.231,71.374c-13.438,29.873-26.851,59.756-40.209,89.665
		c-7.927,17.75-15.472,35.675-23.655,53.306c-8.556,18.432-32.845,22.266-46.797,7.727c-7.809-8.138-9.813-21.122-4.742-32.48
		c9.038-20.246,18.229-40.425,27.336-60.642c14.43-32.036,28.882-64.063,43.25-96.126c9.066-20.234,17.99-40.532,26.994-60.794
		C401.089,496.58,401.963,494.95,403.149,492.542z"/>
	<path fill-rule="evenodd" clip-rule="evenodd" d="M284.075,339.271c8.175,17.357,16.136,34.261,24.27,51.53
		c-2.158,1.142-3.752,2.064-5.412,2.85c-18.192,8.614-36.443,17.105-54.583,25.829c-32.091,15.434-64.134,30.968-96.161,46.534
		c-20.815,10.116-41.477,20.556-62.384,30.479c-13.06,6.198-29.154,1.202-36.487-10.658c-7.527-12.175-4.874-28.585,6.214-37.469
		c2.236-1.792,4.82-3.233,7.415-4.482c12.142-5.845,24.381-11.488,36.518-17.343c31.458-15.176,62.888-30.408,94.313-45.65
		c27.272-13.227,54.523-26.5,81.791-39.74C280.776,340.565,282.048,340.113,284.075,339.271z"/>
	<path fill-rule="evenodd" clip-rule="evenodd" d="M763.699,126.39c-2.018,5.122-3.363,10.653-6.192,15.278
		c-5.847,9.562-11.621,19.396-18.953,27.78c-24.66,28.198-53.433,51.317-86.304,69.673c-27.351,15.273-53.764,32.234-80.506,48.588
		c-9.376,5.734-18.497,11.885-27.734,17.845c-0.355-0.328-0.712-0.655-1.066-0.982c2.764-6.071,5.383-12.214,8.316-18.202
		c9.449-19.282,19.352-38.351,28.368-57.832c3.614-7.811,8.817-12.733,16.49-16.185c7.95-3.578,15.418-8.221,23.143-12.311
		c17.135-9.071,34.287-18.112,51.458-27.117c8.916-4.676,17.933-9.161,26.822-13.886c19.551-10.394,39.043-20.898,58.579-31.317
		c1.885-1.005,3.915-1.736,5.878-2.594C762.565,125.55,763.133,125.97,763.699,126.39z"/>
	<path fill-rule="evenodd" clip-rule="evenodd" d="M326.033,382.446c-8.392-17.55-16.593-34.701-25.281-52.869
		c10.708-4.497,20.385-9.793,30.737-12.595c12.62-3.414,26.915,4.994,30.883,16.246c5.53,15.68,0.798,29.963-12.467,37.046
		C342.136,374.424,334.214,378.288,326.033,382.446z"/>
	<path fill-rule="evenodd" clip-rule="evenodd" d="M462.89,498.594c-17.665-7.997-34.526-15.632-52.191-23.63
		c4.498-9.554,8.093-18.994,13.177-27.55c6.902-11.615,22.203-15.66,34.755-10.315c12.756,5.432,20.2,19.601,16.102,33.385
		C471.899,480.004,467.047,488.922,462.89,498.594z"/>
	<path fill-rule="evenodd" clip-rule="evenodd" d="M383.904,340.189c-0.981-11.887-6.27-22.3-15.233-30.86
		c20.811-12.941,42.854-17.338,67.338-13.063c-1.546,2.77-2.861,5.239-4.278,7.649c-5.695,9.688-11.38,19.382-17.191,29
		c-0.689,1.139-2.027,2.396-3.247,2.624C402.49,337.18,393.642,338.57,383.904,340.189z"/>
</g>
</svg>
